<?xml version="1.0" encoding="UTF-8"?>
<svg xmlns="http://www.w3.org/2000/svg" xmlns:xlink="http://www.w3.org/1999/xlink" width="2500px" height="2813px" viewBox="0 0 2500 2812" version="1.1">
<defs>
<clipPath id="clip1">
  <path d="M 1001.589844 703 L 1498.410156 703 L 1498.410156 2109 L 1001.589844 2109 Z M 1001.589844 703 "/>
</clipPath>
</defs>
<g id="surface1">
<path style=" stroke:none;fill-rule:nonzero;fill:rgb(0%,45.490196%,85.098039%);fill-opacity:1;" d="M 1248.617188 2656.949219 C 1187.726562 2656.949219 1135.148438 2618.207031 1118.539062 2560.097656 C 1110.234375 2529.660156 1077.023438 2513.0625 1049.351562 2521.355469 C 1038.28125 2524.121094 1027.210938 2532.425781 1018.90625 2543.492188 C 974.625 2604.371094 891.59375 2620.972656 827.9375 2576.699219 C 789.1875 2551.796875 767.046875 2507.523438 769.820312 2460.484375 C 769.820312 2430.042969 744.914062 2402.378906 714.46875 2402.371094 C 700.632812 2402.371094 689.5625 2405.136719 678.492188 2413.4375 C 617.601562 2457.710938 531.8125 2446.644531 487.523438 2385.769531 C 459.84375 2349.800781 451.546875 2302.753906 468.15625 2258.480469 C 479.226562 2228.042969 462.617188 2197.601562 432.171875 2186.539062 C 421.101562 2183.777344 407.265625 2183.777344 396.195312 2186.539062 C 324.234375 2211.441406 246.742188 2172.707031 221.835938 2100.757812 C 208 2059.25 213.53125 2009.449219 241.210938 1973.46875 C 260.585938 1948.566406 255.046875 1912.589844 230.140625 1895.992188 C 219.070312 1887.6875 208 1884.921875 194.164062 1884.921875 C 119.4375 1887.6875 55.78125 1826.816406 55.78125 1752.101562 C 55.78125 1705.0625 77.921875 1663.554688 113.898438 1635.882812 C 138.804688 1619.273438 144.34375 1583.304688 127.734375 1558.402344 C 119.429688 1547.335938 111.125 1541.796875 97.296875 1536.265625 C 25.335938 1514.128906 -16.171875 1436.652344 5.960938 1364.710938 C 19.796875 1320.4375 53.007812 1287.230469 97.296875 1273.390625 C 127.742188 1265.085938 144.34375 1231.882812 136.039062 1204.214844 C 133.273438 1193.148438 124.96875 1182.078125 113.898438 1173.777344 C 53.007812 1129.503906 36.40625 1046.484375 80.6875 982.847656 C 105.59375 944.105469 149.875 921.96875 196.929688 924.734375 C 227.375 924.734375 255.046875 899.832031 255.046875 869.390625 C 255.046875 855.558594 252.28125 844.492188 243.976562 833.421875 C 199.695312 772.542969 210.765625 686.769531 271.65625 642.496094 C 307.632812 614.820312 354.6875 606.523438 398.960938 623.125 C 429.40625 634.191406 459.851562 617.585938 470.921875 587.152344 C 473.6875 576.085938 473.6875 562.25 470.921875 551.175781 C 446.015625 479.226562 484.757812 401.75 556.71875 376.847656 C 598.234375 363.011719 648.046875 368.542969 684.023438 396.21875 C 708.929688 415.589844 744.914062 410.050781 761.515625 385.148438 C 769.820312 374.082031 772.585938 363.011719 772.585938 349.179688 C 769.820312 274.46875 830.703125 210.820312 905.4375 210.820312 C 952.484375 210.820312 994 232.957031 1021.671875 268.929688 C 1038.28125 293.832031 1074.257812 299.367188 1099.164062 282.769531 C 1110.234375 274.46875 1115.773438 266.164062 1121.304688 252.332031 C 1143.445312 180.382812 1220.9375 138.882812 1292.898438 161.019531 C 1337.179688 174.851562 1370.390625 208.058594 1384.226562 252.332031 C 1389.765625 271.703125 1406.367188 288.300781 1428.507812 291.074219 C 1450.648438 293.839844 1470.023438 285.535156 1483.859375 268.929688 C 1528.140625 208.050781 1611.171875 191.449219 1674.828125 235.722656 C 1713.578125 260.625 1735.71875 304.898438 1732.945312 351.945312 C 1732.945312 382.386719 1757.851562 410.050781 1788.296875 410.050781 C 1802.132812 410.050781 1813.203125 407.285156 1824.273438 398.984375 C 1885.164062 354.710938 1970.953125 365.777344 2015.242188 426.660156 C 2042.921875 462.628906 2051.21875 509.675781 2034.617188 553.949219 C 2023.546875 584.386719 2040.15625 614.828125 2070.59375 625.890625 C 2081.664062 628.652344 2095.5 628.652344 2106.570312 625.890625 C 2178.53125 600.988281 2256.023438 639.722656 2280.929688 711.671875 C 2294.765625 753.179688 2289.234375 802.980469 2261.554688 838.960938 C 2242.179688 863.863281 2247.71875 899.839844 2272.625 916.4375 C 2283.695312 924.742188 2294.765625 927.507812 2308.609375 927.507812 C 2383.335938 924.742188 2446.992188 985.613281 2446.984375 1060.328125 C 2446.984375 1107.367188 2424.84375 1148.875 2388.867188 1176.539062 C 2369.492188 1187.609375 2361.1875 1209.746094 2363.960938 1231.882812 C 2366.726562 1254.019531 2383.335938 1270.625 2402.703125 1276.164062 C 2474.664062 1298.300781 2516.171875 1375.777344 2494.039062 1447.71875 C 2480.203125 1491.992188 2446.992188 1525.199219 2402.703125 1539.039062 C 2372.257812 1547.34375 2355.65625 1580.546875 2363.960938 1608.214844 C 2366.726562 1619.28125 2375.03125 1630.351562 2386.101562 1638.652344 C 2446.992188 1682.925781 2463.59375 1765.945312 2419.3125 1829.582031 C 2394.40625 1868.324219 2350.125 1890.460938 2303.070312 1887.6875 C 2280.929688 1887.6875 2261.554688 1898.757812 2250.484375 1918.128906 C 2239.414062 1937.5 2242.179688 1959.636719 2256.023438 1979.007812 C 2300.304688 2039.886719 2289.234375 2125.660156 2228.34375 2169.933594 C 2192.367188 2197.609375 2145.3125 2205.90625 2101.039062 2189.304688 C 2070.59375 2178.238281 2040.148438 2194.84375 2029.078125 2225.277344 C 2026.3125 2236.34375 2026.3125 2250.179688 2029.078125 2261.253906 C 2053.984375 2333.203125 2015.242188 2410.679688 1943.28125 2435.574219 C 1901.765625 2449.410156 1851.953125 2443.878906 1815.976562 2416.210938 C 1791.070312 2396.839844 1755.085938 2402.378906 1738.484375 2427.28125 C 1730.179688 2438.347656 1727.414062 2449.417969 1727.414062 2463.25 C 1730.179688 2537.960938 1669.296875 2601.609375 1594.5625 2601.609375 C 1547.515625 2601.609375 1506 2579.472656 1478.328125 2543.492188 C 1467.257812 2526.886719 1445.117188 2515.816406 1422.976562 2521.355469 C 1400.835938 2524.121094 1384.226562 2540.726562 1378.695312 2560.097656 C 1362.085938 2618.207031 1309.507812 2656.949219 1248.617188 2656.949219 Z M 1063.1875 2441.113281 C 1071.492188 2441.113281 1077.023438 2441.113281 1085.328125 2443.878906 C 1137.914062 2452.179688 1179.429688 2488.152344 1193.265625 2537.960938 C 1201.570312 2568.402344 1234.78125 2585 1262.453125 2573.933594 C 1279.0625 2568.394531 1292.898438 2554.5625 1298.429688 2537.960938 C 1320.570312 2466.015625 1398.0625 2424.515625 1470.023438 2446.644531 C 1497.703125 2454.945312 1525.375 2474.316406 1541.984375 2499.21875 C 1561.359375 2524.121094 1594.570312 2529.660156 1622.242188 2510.289062 C 1636.078125 2499.21875 1644.382812 2482.613281 1644.382812 2466.015625 C 1641.617188 2391.300781 1702.5 2327.65625 1777.226562 2327.664062 C 1807.671875 2327.664062 1838.117188 2335.96875 1863.023438 2355.332031 C 1887.929688 2374.703125 1923.914062 2369.164062 1940.515625 2344.261719 C 1951.585938 2330.429688 1954.351562 2308.292969 1948.820312 2291.6875 C 1923.914062 2219.738281 1959.890625 2142.257812 2031.84375 2117.359375 C 2062.289062 2106.289062 2092.734375 2106.289062 2123.179688 2117.359375 C 2153.625 2128.425781 2184.070312 2111.820312 2195.132812 2081.386719 C 2200.671875 2064.78125 2197.898438 2042.644531 2186.835938 2028.8125 C 2142.554688 1967.929688 2153.625 1882.15625 2214.507812 1837.882812 C 2239.414062 1818.511719 2269.859375 1810.210938 2300.304688 1810.210938 C 2330.75 1810.210938 2355.65625 1785.308594 2358.421875 1754.867188 C 2358.421875 1735.496094 2350.117188 1718.898438 2333.515625 1707.828125 C 2272.625 1663.554688 2256.023438 1580.539062 2300.304688 1516.902344 C 2316.914062 1492 2341.820312 1472.628906 2372.265625 1464.324219 C 2402.710938 1456.023438 2419.3125 1422.816406 2408.242188 1395.140625 C 2402.703125 1378.535156 2388.867188 1364.703125 2372.265625 1359.171875 C 2300.304688 1337.035156 2258.796875 1259.558594 2280.929688 1187.609375 C 2289.234375 1159.933594 2308.609375 1132.265625 2333.515625 1115.667969 C 2358.421875 1096.296875 2363.960938 1060.328125 2344.585938 1035.425781 C 2333.515625 1021.589844 2316.90625 1013.289062 2300.304688 1013.289062 C 2225.578125 1016.054688 2161.921875 955.183594 2161.921875 880.460938 C 2161.921875 850.019531 2170.226562 819.582031 2189.601562 794.6875 C 2208.976562 769.785156 2203.4375 733.808594 2178.53125 717.199219 C 2164.695312 706.132812 2142.554688 703.367188 2125.945312 708.90625 C 2053.984375 733.808594 1976.492188 697.835938 1951.585938 625.890625 C 1940.515625 595.449219 1940.515625 565.007812 1951.585938 534.578125 C 1962.65625 504.136719 1946.046875 473.695312 1915.609375 462.628906 C 1899 457.089844 1876.859375 459.863281 1863.023438 470.933594 C 1802.132812 515.207031 1716.34375 504.136719 1672.0625 443.257812 C 1652.6875 418.355469 1644.382812 387.914062 1644.382812 357.484375 C 1644.382812 327.042969 1619.476562 302.140625 1586.265625 302.140625 C 1569.65625 302.140625 1550.289062 310.445312 1541.984375 324.277344 C 1497.703125 385.15625 1414.671875 401.757812 1351.015625 357.484375 C 1326.109375 340.875 1306.734375 315.976562 1298.429688 285.535156 C 1290.125 255.09375 1256.914062 238.496094 1229.242188 249.566406 C 1212.632812 255.101562 1198.796875 268.9375 1193.265625 285.535156 C 1171.125 357.484375 1093.632812 398.984375 1021.671875 376.847656 C 993.992188 368.542969 966.320312 349.171875 949.71875 324.277344 C 930.34375 299.375 897.132812 293.839844 869.453125 313.210938 C 855.617188 324.277344 847.3125 340.882812 847.3125 357.484375 C 850.078125 432.195312 789.195312 495.839844 714.46875 495.832031 C 684.023438 495.832031 653.578125 487.53125 628.671875 468.167969 C 603.765625 448.796875 567.78125 454.332031 551.179688 479.234375 C 540.109375 493.070312 537.34375 515.207031 542.875 531.8125 C 567.78125 603.761719 531.804688 681.238281 459.851562 706.132812 C 429.40625 717.199219 398.960938 717.199219 368.515625 706.132812 C 338.070312 695.0625 307.625 711.671875 296.5625 742.109375 C 291.023438 758.714844 293.796875 780.851562 304.867188 794.6875 C 349.148438 855.566406 338.078125 941.339844 277.1875 985.613281 C 252.28125 1004.984375 221.835938 1013.289062 191.390625 1013.289062 C 160.945312 1013.289062 136.039062 1038.191406 136.039062 1071.394531 C 136.039062 1088 144.34375 1107.367188 158.179688 1115.667969 C 219.070312 1159.941406 235.671875 1242.957031 191.390625 1306.597656 C 174.78125 1331.496094 149.875 1350.871094 119.4375 1359.171875 C 88.992188 1367.476562 72.390625 1400.679688 83.453125 1428.347656 C 88.992188 1444.953125 102.828125 1458.789062 119.4375 1464.324219 C 191.398438 1486.460938 232.90625 1563.941406 210.765625 1635.882812 C 202.460938 1663.554688 183.085938 1691.222656 158.179688 1707.828125 C 133.273438 1727.199219 127.734375 1760.40625 147.109375 1788.074219 C 158.179688 1801.90625 174.789062 1810.210938 191.390625 1810.210938 C 266.117188 1807.445312 329.773438 1868.316406 329.773438 1943.03125 C 329.773438 1973.46875 321.46875 2003.910156 302.09375 2028.8125 C 282.71875 2053.714844 288.257812 2089.691406 313.164062 2106.289062 C 327 2117.359375 349.140625 2120.121094 365.75 2114.59375 C 437.710938 2089.691406 515.203125 2125.660156 540.109375 2197.609375 C 551.179688 2228.050781 551.179688 2258.488281 540.109375 2288.921875 C 529.039062 2319.359375 545.648438 2349.800781 576.085938 2360.871094 C 592.695312 2366.40625 614.835938 2363.632812 628.671875 2352.566406 C 689.5625 2308.292969 775.351562 2319.359375 819.640625 2380.234375 C 839.015625 2405.136719 847.320312 2435.574219 847.3125 2466.015625 C 847.3125 2496.453125 872.21875 2521.355469 902.664062 2524.128906 C 922.039062 2524.128906 938.640625 2515.824219 949.71875 2499.21875 C 977.398438 2463.25 1018.90625 2441.113281 1063.1875 2441.113281 Z M 1063.1875 2441.113281 "/>
<g clip-path="url(#clip1)" clip-rule="nonzero">
<path style=" stroke:none;fill-rule:nonzero;fill:rgb(90.196078%,80.784314%,5.490196%);fill-opacity:1;" d="M 1245.789062 1452.304688 C 1287.894531 1452.304688 1321.292969 1464.511719 1345.996094 1488.929688 C 1370.414062 1513.625 1382.625 1547.722656 1382.625 1591.222656 C 1382.625 1620.6875 1377.011719 1649.734375 1365.785156 1678.359375 C 1354.554688 1707.265625 1334.207031 1749.78125 1304.734375 1805.910156 L 1146.847656 2109 L 1001.589844 2109 L 1127.902344 1746.976562 C 1091.410156 1720.316406 1073.167969 1683.128906 1073.167969 1635.421875 C 1073.167969 1584.90625 1089.304688 1541.6875 1121.585938 1505.765625 C 1153.863281 1470.125 1195.265625 1452.304688 1245.789062 1452.304688 Z M 1323.679688 1031.347656 C 1280.175781 1031.347656 1245.507812 1017.597656 1219.6875 990.09375 C 1193.582031 962.871094 1180.53125 928.210938 1180.53125 886.117188 C 1180.53125 835.601562 1197.371094 792.382812 1231.054688 756.460938 C 1264.734375 720.820312 1306.136719 703 1355.257812 703 C 1400.167969 703 1435.253906 716.609375 1460.515625 743.832031 C 1485.777344 771.335938 1498.410156 806.132812 1498.410156 848.230469 C 1498.410156 898.746094 1481.988281 941.964844 1449.148438 977.886719 C 1416.027344 1013.527344 1374.203125 1031.347656 1323.679688 1031.347656 Z M 1323.679688 1031.347656 "/>
</g>
</g>
</svg>
